<?xml version="1.0" encoding="utf-8"?>
<!-- Generator: Adobe Illustrator 25.2.1, SVG Export Plug-In . SVG Version: 6.00 Build 0)  -->
<svg version="1.1" id="Layer_1" xmlns="http://www.w3.org/2000/svg" xmlns:xlink="http://www.w3.org/1999/xlink" x="0px" y="0px"
	 viewBox="0 0 792 612" style="enable-background:new 0 0 792 612;" xml:space="preserve">
<g>
	<path d="M252.05,303.49c6.08-3.04,9.61-8.63,9.61-15.46c0-11.12-8.78-18.03-22.91-18.03H221.5v72h20.91
		c15.73,0,25.12-7.61,25.12-20.34C267.53,310.11,258.71,305.07,252.05,303.49z M238.75,275.69c7.55,0,16.54,2.14,16.54,12.34
		c0,9.19-7.91,13.3-15.75,13.3h-11.87v-25.64H238.75z M261.16,321.66c0,13.23-13.12,14.66-18.75,14.66h-14.73v-29.2h13.86
		C248.83,307.11,261.16,310.18,261.16,321.66z"/>
	<path d="M326.51,270h-15.34v72h15.34c21.96,0,37.29-15.08,37.29-36.68C363.8,283.86,349.17,270,326.51,270z M357.47,305.32
		c0,18.25-12.26,30.99-29.82,30.99h-10.3v-60.62h10.3C345.48,275.69,357.47,287.6,357.47,305.32z"/>
	<path d="M417.22,270h-15.31v72h15.31c21.97,0,37.31-15.08,37.31-36.68C454.53,283.86,439.89,270,417.22,270z M448.17,305.32
		c0,18.25-12.26,30.99-29.82,30.99h-10.29v-60.62h10.29C436.19,275.69,448.17,287.6,448.17,305.32z"/>
	<polygon points="564.04,270 546.47,329.23 529.98,270 525.53,270 509.23,329.17 491.17,270 484.61,270 506.8,341.35 507,342
		511.66,342 527.83,284.14 543.98,342 548.61,342 570.5,270 	"/>
</g>
</svg>
